<svg width="13" height="12" viewBox="0 0 13 12" fill="none" xmlns="http://www.w3.org/2000/svg">
<path fill-rule="evenodd" clip-rule="evenodd" d="M0.0556641 5.07692V1.89474C0.0556641 0.789474 0.845138 0 1.9504 0H3.31925C3.83451 0 4.4012 0.240521 4.6758 0.593945C4.9504 0.947368 4.9504 0.947368 5.1083 1.10526C5.26619 1.26316 5.79803 1.26316 6.05566 1.26316H10.1609C11.2662 1.26316 12.0557 2.13829 12.0557 3.15789V5.07692V9.78947C12.0557 10.8947 10.9504 12 9.84514 12H1.9504C0.845138 12 0.0556641 11.2105 0.0556641 10.1053V5.07692ZM10.9504 5.07692V9.78947C10.9504 10.2632 10.3188 10.8947 9.84514 10.8947H1.9504C1.47672 10.8704 1.16093 10.5789 1.16093 10.1053V5.07692H10.9504Z" fill="#868E96"/>
</svg>
