<svg width="13" height="12" viewBox="0 0 13 12" fill="none" xmlns="http://www.w3.org/2000/svg">
<path d="M5.29003 0C2.43947 0.364914 0.212364 2.74026 0.0556641 5.66949H1.56083C1.71055 3.57634 3.27105 1.87655 5.29003 1.52872V0Z" fill="#868E96"/>
<path d="M7.08768 1.58302V0.0402334C9.80955 0.514492 11.9039 2.83215 12.0557 5.66949H10.5505C10.4074 3.66937 8.9762 2.02841 7.08768 1.58302Z" fill="#868E96"/>
<path d="M5.29003 10.4713C3.6549 10.1896 2.32049 9.02112 1.79266 7.47512H0.226805C0.820648 9.86044 2.82158 11.684 5.29003 12V10.4713Z" fill="#868E96"/>
<path d="M7.08768 11.9598V10.417C8.60045 10.0602 9.8198 8.93629 10.3187 7.47512H11.8845C11.3122 9.77403 9.43287 11.5511 7.08768 11.9598Z" fill="#868E96"/>
</svg>
