<svg width="13" height="12" viewBox="0 0 13 12" fill="none" xmlns="http://www.w3.org/2000/svg">
<path d="M3.84514 3.76452e-08C4.9504 -0.000143202 5.42408 0.473671 5.42408 1.57895V5.05263C5.42408 6.31579 4.9504 6.63156 3.84514 6.63156H1.63461C0.529348 6.63156 0.0556641 6.1579 0.0556641 5.05263V1.57895C0.0556641 0.473672 0.529348 -1.21593e-05 1.63461 3.76452e-08C1.63461 3.76452e-08 2.73987 0.000143277 3.84514 3.76452e-08ZM1.16093 1.57895C1.16093 1.89474 1.16093 5.05263 1.16093 5.05263C1.16093 5.36842 1.31882 5.52631 1.63461 5.52631C1.9504 5.52631 3.84514 5.52632 3.84514 5.52632C4.16093 5.52631 4.31882 5.36842 4.31882 5.05263C4.31882 5.05263 4.31882 1.89474 4.31882 1.57895C4.31882 1.26316 4.16093 1.10526 3.84514 1.10526C3.52935 1.10526 1.9504 1.10526 1.63461 1.10526C1.31882 1.10526 1.16093 1.26316 1.16093 1.57895Z" fill="#868E96"/>
<path d="M10.4767 5.36842C11.582 5.36828 12.0557 5.84209 12.0557 6.94737V10.4211C12.0557 11.6842 11.582 12 10.4767 12H8.26619C7.16093 12 6.68724 11.5263 6.68724 10.4211V6.94737C6.68724 5.84209 7.16093 5.36841 8.26619 5.36842C8.26619 5.36842 9.37145 5.36856 10.4767 5.36842ZM7.79251 6.94737C7.79251 7.26316 7.79251 10.4211 7.79251 10.4211C7.79251 10.7368 7.9504 10.8947 8.26619 10.8947C8.58198 10.8947 10.4767 10.8947 10.4767 10.8947C10.7925 10.8947 10.9504 10.7368 10.9504 10.4211C10.9504 10.4211 10.9504 7.26316 10.9504 6.94737C10.9504 6.63158 10.7925 6.47368 10.4767 6.47368C10.1609 6.47368 8.58198 6.47368 8.26619 6.47368C7.9504 6.47368 7.79251 6.63158 7.79251 6.94737Z" fill="#868E96"/>
<path d="M10.4767 3.24668e-08C11.582 -0.000143207 12.0557 0.473671 12.0557 1.57895V2.52632C12.0557 3.78947 11.582 4.10524 10.4767 4.10524H8.26619C7.16093 4.10524 6.68724 3.63158 6.68724 2.52632V1.57895C6.68724 0.473672 7.16093 -1.21645e-05 8.26619 3.24668e-08C8.26619 3.24668e-08 9.37145 0.000143272 10.4767 3.24668e-08Z" fill="#868E96"/>
<path d="M3.84514 7.89474C4.9504 7.89459 5.42408 8.36841 5.42408 9.47368V10.4211C5.42408 11.6842 4.9504 12 3.84514 12H1.63461C0.529348 12 0.0556641 11.5263 0.0556641 10.4211V9.47368C0.0556641 8.36841 0.529348 7.89473 1.63461 7.89474C1.63461 7.89474 2.73987 7.89488 3.84514 7.89474ZM1.16093 9.47368C1.16093 9.78947 1.16093 10.4211 1.16093 10.4211C1.16093 10.7368 1.31882 10.8947 1.63461 10.8947C1.9504 10.8947 3.84514 10.8947 3.84514 10.8947C4.16093 10.8947 4.31882 10.7368 4.31882 10.4211C4.31882 10.4211 4.31882 9.78947 4.31882 9.47368C4.31882 9.15789 4.16093 9 3.84514 9C3.52935 9 1.9504 9 1.63461 9C1.31882 9 1.16093 9.15789 1.16093 9.47368Z" fill="#868E96"/>
</svg>
